<mxfile host="app.diagrams.net" modified="2021-07-13T02:38:51.008Z" agent="5.0 (Macintosh; Intel Mac OS X 10_14_6) AppleWebKit/537.36 (KHTML, like Gecko) Chrome/91.0.4472.114 Safari/537.36" etag="XyEUcDJkJkWFR-dbkTgo" version="14.8.6" type="github">
  <diagram id="cps35GShR90hmx-HVfjR" name="Page-1">
    <mxGraphModel dx="1389" dy="714" grid="1" gridSize="10" guides="1" tooltips="1" connect="1" arrows="1" fold="1" page="1" pageScale="1" pageWidth="889" pageHeight="200" math="0" shadow="0">
      <root>
        <mxCell id="0" />
        <mxCell id="1" parent="0" />
        <mxCell id="0BUX-CX8GLWpcNfoB1NS-7" value="" style="rounded=1;whiteSpace=wrap;html=1;sketch=1;shadow=1;" vertex="1" parent="1">
          <mxGeometry x="324.5" y="60" width="120" height="60" as="geometry" />
        </mxCell>
        <mxCell id="0BUX-CX8GLWpcNfoB1NS-8" value="" style="rounded=0;whiteSpace=wrap;html=1;shadow=1;sketch=1;" vertex="1" parent="1">
          <mxGeometry x="520" y="50" width="120" height="60" as="geometry" />
        </mxCell>
        <mxCell id="0BUX-CX8GLWpcNfoB1NS-9" value="" style="rounded=1;whiteSpace=wrap;html=1;shadow=1;sketch=1;" vertex="1" parent="1">
          <mxGeometry x="120" y="90" width="120" height="60" as="geometry" />
        </mxCell>
      </root>
    </mxGraphModel>
  </diagram>
</mxfile>
